<?xml version="1.0" standalone="no"?>
<!DOCTYPE svg PUBLIC "-//W3C//DTD SVG 20010904//EN"
 "http://www.w3.org/TR/2001/REC-SVG-20010904/DTD/svg10.dtd">
<svg version="1.0" xmlns="http://www.w3.org/2000/svg"
 width="43.000000pt" height="47.000000pt" viewBox="0 0 43.000000 47.000000"
 preserveAspectRatio="xMidYMid meet">

<g transform="translate(0.000000,47.000000) scale(0.100000,-0.100000)"
fill="#000000" stroke="none">
<path d="M55 413 c29 -54 41 -64 68 -58 14 4 28 2 32 -4 3 -7 3 -11 -2 -10 -4
1 -18 -2 -30 -6 -21 -7 -21 -7 8 -57 l30 -50 -31 -47 c-16 -26 -30 -55 -30
-64 0 -10 -5 -17 -10 -17 -12 0 -7 -39 10 -70 14 -26 14 -25 70 75 18 33 43
74 56 91 l22 30 -39 65 c-21 35 -43 75 -49 89 -20 44 -41 60 -82 60 l-39 0 16
-27z"/>
<path d="M325 300 c-4 -6 -10 -8 -15 -5 -8 5 -50 -40 -50 -54 0 -4 9 -7 20 -7
11 0 20 6 20 13 0 7 10 13 21 13 20 0 48 25 49 43 0 11 -38 9 -45 -3z"/>
<path d="M320 239 c0 -5 5 -7 10 -4 6 3 10 8 10 11 0 2 -4 4 -10 4 -5 0 -10
-5 -10 -11z"/>
<path d="M247 172 c-35 -4 -44 -24 -24 -52 l15 -21 21 22 c22 24 27 19 11 -10
-13 -25 19 -61 51 -60 13 0 18 3 12 6 -7 2 -13 12 -13 21 -1 10 -11 35 -23 57
-19 34 -26 40 -50 37z"/>
</g>
</svg>
